<?xml version="1.0" encoding="utf-8"?>
<!-- Generator: Adobe Illustrator 23.0.2, SVG Export Plug-In . SVG Version: 6.00 Build 0)  -->
<svg version="1.1" id="Layer_1" xmlns="http://www.w3.org/2000/svg" xmlns:xlink="http://www.w3.org/1999/xlink" x="0px" y="0px"
	 viewBox="0 0 51.7 72" style="enable-background:new 0 0 51.7 72;" xml:space="preserve">
<style type="text/css">
	.st0{fill:#FFFFFF;}
</style>
<path class="st0" d="M47.3,25.9l-4.7-4.2l0.4-2.7c1.3-9.1-5.1-17.6-14.3-18.8S11.1,5.3,9.9,14.5c-0.2,1.5-0.2,3.1,0,4.6l0.4,2.7
	l-4.6,4.1c-1.7,1.4-1.9,3.9-0.5,5.5c0.1,0.2,0.3,0.3,0.4,0.4l1.2,1.1c0.8,0.7,1.3,1.8,1.3,2.9v2.9c-2.5,1.4-3.4,4.6-1.9,7.1
	c0.9,1.6,2.7,2.6,4.5,2.6h5.2v3.1l-3.2,1.7c-0.6,0.3-0.9,1.1-0.6,1.8c0.3,0.6,1.1,0.9,1.8,0.6l3.9-2c0.4-0.2,0.7-0.7,0.7-1.2v-3.9
	h3.9v5.2c-0.7,0-1.3,0.6-1.3,1.3V59h-6.5c-2.2,0-3.9,1.7-3.9,3.9c0,1.4,0.7,2.6,1.8,3.3c-0.3,0.6-0.5,1.2-0.5,1.9
	c0,2.2,1.8,3.9,3.9,3.9s3.9-1.8,3.9-3.9c0-0.4-0.1-0.9-0.2-1.3h13.6c-0.2,0.4-0.2,0.9-0.2,1.3c0,2.2,1.8,3.9,3.9,3.9
	c2.2,0,3.9-1.8,3.9-3.9c0-0.7-0.2-1.3-0.5-1.9c1.8-1.2,2.4-3.6,1.2-5.4c-0.7-1.1-2-1.8-3.3-1.8h-6.5V55c0-0.7-0.6-1.3-1.3-1.3v-5.2
	h11.8c2.9,0,5.2-2.3,5.2-5.2c0-1.8-1-3.5-2.5-4.5v-2.9c0-1.1,0.5-2.2,1.3-2.9l1.2-1.1c1.6-1.4,1.8-3.9,0.3-5.5
	C47.5,26.2,47.4,26.1,47.3,25.9L47.3,25.9z M22.3,3.3c7.4-2.3,15.3,1.9,17.6,9.3c0.6,2,0.8,4,0.5,6L37.4,38H15.4l-2.9-19.4
	C11.5,11.8,15.7,5.3,22.3,3.3z M8.5,31l-1.2-1.1c-0.3-0.3-0.4-0.6-0.4-1c0-0.4,0.2-0.8,0.5-1l3.4-3l2,13.1h-2v-2.2
	C10.7,34,9.9,32.2,8.5,31z M17.2,68.1c0,0.7-0.6,1.3-1.3,1.3s-1.3-0.6-1.3-1.3c0-0.7,0.6-1.3,1.3-1.3S17.2,67.4,17.2,68.1z
	 M36.9,69.4c-0.7,0-1.3-0.6-1.3-1.3c0-0.7,0.6-1.3,1.3-1.3s1.3,0.6,1.3,1.3C38.2,68.9,37.6,69.4,36.9,69.4z M39.5,62.9
	c0,0.7-0.6,1.3-1.3,1.3H14.6c-0.7,0-1.3-0.6-1.3-1.3s0.6-1.3,1.3-1.3h23.6C38.9,61.6,39.5,62.2,39.5,62.9z M23.8,59v-2.6H29V59H23.8
	z M27.7,53.7h-2.6v-5.2h2.6V53.7z M42.1,45.9H10.7c-1.4,0-2.6-1.2-2.6-2.6c0-1.4,1.2-2.6,2.6-2.6h31.4c1.4,0,2.6,1.2,2.6,2.6
	C44.7,44.7,43.6,45.9,42.1,45.9z M45.6,29.9L44.4,31c-1.4,1.2-2.2,3-2.2,4.9V38c0,0-0.1,0-0.1,0h-2l2-13.2l3.5,3.1
	c0.6,0.5,0.6,1.3,0.2,1.8C45.7,29.8,45.6,29.9,45.6,29.9z"/>
</svg>
