<?xml version="1.0" encoding="utf-8"?>
<!-- Generator: Adobe Illustrator 23.0.1, SVG Export Plug-In . SVG Version: 6.00 Build 0)  -->
<svg version="1.1" id="Layer_1" xmlns="http://www.w3.org/2000/svg" xmlns:xlink="http://www.w3.org/1999/xlink" x="0px" y="0px"
	 viewBox="0 0 100 100" style="enable-background:new 0 0 100 100;" xml:space="preserve">
<style type="text/css">
	.st0{fill:#FFFFFF;}
</style>
<g>
	<path class="st0" d="M50.2,15.1c-15.24,0-27.48,12.36-27.48,27.48S50.2,87.1,50.2,87.1s27.48-29.28,27.48-44.52
		S65.44,15.1,50.2,15.1z M50.2,83.5c-2.52-2.76-7.2-8.16-11.88-14.52c-8.64-11.64-13.2-20.76-13.2-26.52
		c0-13.8,11.28-25.08,25.08-25.08s25.08,11.4,25.08,25.2c0,5.64-4.56,14.88-13.2,26.52C57.4,75.34,52.72,80.74,50.2,83.5z"/>
	<path class="st0" d="M50.2,28.3c-7.2,0-12.96,5.76-12.96,12.96S43,54.22,50.2,54.22s12.96-5.76,12.96-12.96
		C63.16,34.18,57.4,28.3,50.2,28.3z M57.64,48.82c-1.92,1.92-4.56,3.12-7.44,3.12s-5.52-1.2-7.44-3.12
		c-1.92-1.92-3.12-4.56-3.12-7.44c0-2.88,1.2-5.52,3.12-7.44c1.92-1.92,4.56-3.12,7.44-3.12s5.52,1.2,7.44,3.12
		c1.92,1.92,3.12,4.56,3.12,7.44C60.76,44.26,59.56,46.9,57.64,48.82z"/>
</g>
</svg>
