<?xml version="1.0" encoding="utf-8"?>
<!-- Generator: Adobe Illustrator 23.0.2, SVG Export Plug-In . SVG Version: 6.00 Build 0)  -->
<svg version="1.1" id="Layer_1" xmlns="http://www.w3.org/2000/svg" xmlns:xlink="http://www.w3.org/1999/xlink" x="0px" y="0px"
	 viewBox="0 0 125.2 66.8" style="enable-background:new 0 0 125.2 66.8;" xml:space="preserve">
<style type="text/css">
	.Arched_x0020_Green{fill:url(#SVGID_1_);stroke:#FFFFFF;stroke-width:0.25;stroke-miterlimit:1;}
	.st0{fill:#FFFFFF;}
</style>
<linearGradient id="SVGID_1_" gradientUnits="userSpaceOnUse" x1="-240.3445" y1="348.0557" x2="-239.6374" y2="347.3486">
	<stop  offset="0" style="stop-color:#20AC4B"/>
	<stop  offset="0.9831" style="stop-color:#19361A"/>
</linearGradient>
<path class="st0" d="M28.3,66.6c8.2,0,14.9-0.5,14.9-1.2c0-0.7-6.7-1.2-14.9-1.2c-8.2,0-14.9,0.5-14.9,1.2
	C13.4,66.1,20.1,66.6,28.3,66.6"/>
<g>
	<path class="st0" d="M54.1,56.8h-0.9v-9.5h0.9c0,0,0.1,7.8,8,7.8c3.1,0,5.4-2,5.4-4.8c0-2-2-3.7-5-5.2l-4.2-2.1
		c-2.5-1.3-4.8-3.9-4.8-7.2c0-3.6,3-6.5,7.2-6.5c2.6,0,4,0.8,5.3,1.8c0.5-0.4,1-1.1,1.3-2h0.9v9.5h-0.9c-0.3-3.5-1.6-7.6-6.6-7.6
		c-2.4,0-4.2,1.7-4.2,3.9c0,2.3,1.5,3.4,5.2,5.4l4.2,2.1c3.3,1.7,4.5,4.2,4.5,6.6c0,4.7-3.8,7.8-8.2,7.8c-3.3,0-5.4-1.7-6.8-2
		C54.8,55.2,54.3,55.9,54.1,56.8z"/>
	<path class="st0" d="M75.7,55.2c3.6,0,4.1-0.7,4.1-5.1V36c0-4.3-0.5-5-4.1-5v-0.9h19.8l0.4,5.7h-0.9l-0.2-0.9c-0.6-2.3-1-3.3-5-3.3
		h-6.4v9.8h2.2c4.3,0,5-0.5,5-4.2h0.9v9.9h-0.9c0-3.6-0.7-4.2-5-4.2h-2.2v6.3c0,4.3,0.5,5,4.1,5h3.7c4,0,4.5-1,5-3.3l0.2-0.9h0.9
		l-0.3,5.8H75.7V55.2z"/>
	<path class="st0" d="M124.4,55.6c-0.2-1-0.9-2.1-1.5-2.5c-2.2,2.3-5,3.7-8.1,3.7c-7.3,0-13.3-6.2-13.3-13.7s6-13.7,13.3-13.7
		c3,0,5.9,1.3,8.1,3.7c0.6-0.4,1.3-1.4,1.5-2.5h0.9v9.5h-0.9c-1.2-5.6-4.6-9.1-9.4-9.1c-6.9,0-9.5,6.7-9.5,12.1c0,5.4,2.5,12,9.5,12
		c4.8,0,8.1-3.5,9.4-9h0.9v9.5H124.4z"/>
</g>
<path class="st0" d="M28.9,66.8c8.2,0,14.9-0.5,14.9-1.2c0-0.7-6.7-1.2-14.9-1.2c-8.2,0-14.9,0.6-14.9,1.2
	C14,66.3,20.6,66.8,28.9,66.8"/>
<g>
	<path class="st0" d="M36.1,45.8c3.9-2.5,2.7-7.7-2.6-7.9c-0.7,0-7,1.3-7.7,0.3c-0.8-1.1,7-5.1,3.4-8.1c-3.6-3.1-8,0.7-10.2,0.3
		c-0.3-1.5,1.5-3.1,0.8-4.6c-1.1-2.3-5.5-3-7.8-2.5c-2.8,0.6-5.3,0.2-7.1-2.3C1.8,16.4,1.2,10.4,3.4,5.3c0.4-1,1.4-2.1,1.6-3.1
		C5.2,1.3,4.8,0.8,4.4,0c-1,1.4-2.3,3-3,4.6C-0.1,8.3,0,13.1,0,13.1C0.7,18,2.9,23.3,3.4,27l0-0.1c4.1,7.7,15,12.4,15,12.4
		c10.3,4.3,16.3,15,17.1,16.6c0.2-0.3,0.3-0.7,0.5-1.1c0.2-0.6,0-1.8-0.2-2.6c-0.4-1.1-3-4.1-2.7-5C33.3,46.6,36,45.9,36.1,45.8z"/>
	<path class="st0" d="M18.3,40.4c-2-0.6-5.8-2.9-5.8-2.9c-6.4-4-9-8.7-9-8.7l0,0c0.1,3.2-1.6,2.7-0.4,7.2c0.3,1,1.5,2.6,2.6,3.1
		c1.9,0.9,3,0.5,4,1.1c0.9,0.5,0.2,4.7,0.4,6.2c0.2,1.9,0.7,4.6,2.7,5.2c1.9,0.6,3-1.2,4.4-3c1.3,3.7,0.1,8.4,4.7,9.1
		c2.8,0.4,3.5-4.5,5.5-4.5c2,0,5.7,5.5,7.8,3.8c-2.8-5.2-6.6-9.3-6.6-9.3C24,42.8,18.3,40.4,18.3,40.4z"/>
</g>
</svg>
