<?xml version="1.0" encoding="utf-8"?>
<!-- Generator: Adobe Illustrator 23.0.2, SVG Export Plug-In . SVG Version: 6.00 Build 0)  -->
<svg version="1.1" id="Layer_1" xmlns="http://www.w3.org/2000/svg" xmlns:xlink="http://www.w3.org/1999/xlink" x="0px" y="0px"
	 viewBox="0 0 62.9 62.9" style="enable-background:new 0 0 62.9 62.9;" xml:space="preserve">
<style type="text/css">
	.Arched_x0020_Green{fill:url(#SVGID_1_);stroke:#FFFFFF;stroke-width:0.25;stroke-miterlimit:1;}
	.st0{fill:none;stroke:#3E74BA;stroke-width:2;}
	.st1{fill:none;}
	.st2{fill:#3E74BA;}
	.st3{fill:#0A3A6E;}
	.st4{fill:none;stroke:#0A3A6E;stroke-width:0;stroke-linecap:round;stroke-linejoin:round;}
</style>
<linearGradient id="SVGID_1_" gradientUnits="userSpaceOnUse" x1="-292.1846" y1="358.7842" x2="-291.4775" y2="358.0771">
	<stop  offset="0" style="stop-color:#20AC4B"/>
	<stop  offset="0.9831" style="stop-color:#19361A"/>
</linearGradient>
<g>
	<path class="st0" d="M31.5,61.9C14.6,61.9,1,48.3,1,31.4C1,14.6,14.6,1,31.5,1c16.8,0,30.4,13.6,30.4,30.4
		C61.9,48.3,48.3,61.9,31.5,61.9z"/>
	<g>
		<g>
			<path class="st1" d="M35,18.7c0-0.1-0.1-0.1-0.1-0.2c-0.2,0-0.5,0-0.5,0c-0.3,0.9-0.2,2-0.9,2.4c-0.4,0.3-1.2,0.3-1.5,0.9
				c0,0.2-0.1,0.6,0.1,0.7c0.4,0.1,1-0.1,1.2,0.2c0.5,0.5,0.6,1.5,0,1.9c-0.5,0.4-1.3-0.2-1.8,0.3c-0.5,0.3-0.6,1-0.7,1.6
				c-0.1,0.6-0.5,1.2-0.8,1.8c-0.3,0.7,0.2,1.4-0.3,2c-0.2,0.2-0.9,0-1,0.2c-0.3,0.4-0.1,0.9,0.5,1c-0.1,0.3,0,0.5,0.2,0.6
				c0.2,0.1,0.6,0.1,0.8,0c0.5-0.4,0.8-1,0.9-1.7c0-0.1,0.2-0.4,0.2-0.5c0.4-0.9,0.1-1.8,0.2-2.6c0.1-0.3,0.4-0.5,0.6-0.7
				c0.9-0.6,2.2-0.9,2.4-1.9c0.6-1.6-0.3-3.2,0.2-4.8C34.9,19.4,35.1,19.1,35,18.7z"/>
			<path class="st1" d="M33,29.7c-0.1,0.2-0.1,0.6,0,0.8h0.3c0.1-0.2,0.1-0.6,0-0.8H33z"/>
			<path class="st1" d="M16.8,18.3c-0.5-0.2-0.9-0.3-1.4-0.2c0,0,0,0.1,0,0.2C15.9,18.2,16.3,18.6,16.8,18.3z"/>
			<path class="st1" d="M30,16.9c-1.1-0.2-2.2-0.9-3.2-0.4c-0.1,0.1-0.2,0.4-0.3,0.4c-0.7,0.5-1.5,0.4-2.2,0.3
				c-0.2-0.1-0.3-0.4-0.5-0.5c-0.4-0.2-0.9-0.2-1,0.1c-0.3,0.8-0.2,1.8-0.1,2.6c0.1,0.3,0.4,0.4,0.6,0.7c0.1,0,0.2,0.2,0.4,0.1
				c0,0.2,0.2,0.3,0.3,0.4c0.3,0.2,0.8,0.3,1.2,0.6c1.2,0.7,2.3,0.7,3.6,0.6C29.4,20.2,30.2,18.7,30,16.9z"/>
			<path class="st1" d="M39.1,49.4c0.3,0.3,0.3,0.4,0.8,0.6c0.7,0.2,1.5,0.2,2.2,0.2c1.7-0.1,3.4-0.1,5.1,0.1
				c1.2,0.1,2.4,0.4,3.4,0.8c0.9,0.3,2,0.3,3,0.4c0-0.1,0-0.2,0-0.2c-1.8-0.4-3.8-0.7-5.4-1.5c-1.1-0.4-2.4-0.6-3.5-0.5
				c-1.2,0.1-2.4,0.4-3.6,0c-0.5-0.1-0.8-0.4-1.1-0.6c-0.8-0.4-1.9-0.2-2.3,0.1C38.1,48.6,38.9,49.2,39.1,49.4z"/>
			<path class="st1" d="M16.6,21.4c-0.1,0-0.3,0.1-0.3,0.1c-0.1,0.4-0.1,0.9-0.4,1c-0.6,0.3-1.3,0.2-1.4-0.6c-1.2-0.3-2.3,0-3.5-0.1
				c0,0.3-0.1,0.6,0.1,0.9c-0.1,0-0.3,0.1-0.4,0.2c-0.8,0.4-1.5,0.9-2.4,0.7C8,23.5,7.7,23.1,7.5,23c-0.6-0.4-1.3,0-1.6,0.5
				c0.2-0.4,0.8,0.3,1,0.6c0.3,0.3,0.3,0.5,0.6,0.7c0.5,0.2,1,0.1,1.5-0.1c1.1-0.5,2.3-0.6,3.5-0.7c0.2,0,0.4,0,0.7,0.1
				c0.3,0.2,0.6,0.5,0.9,0.7c0.5,0.3,1.5,0.6,2,0.2c0.1-0.1,0.3-0.2,0.4-0.4c0.2,0,0.5-0.1,0.7-0.1c0-0.2,0-0.3,0-0.3
				c-0.1,0-0.3,0-0.4-0.1c0.2-0.5,0.3-1,0.5-1.5c0.2-0.3,0.1-0.7,0.1-1C17,21.4,16.8,21.4,16.6,21.4z"/>
			<path class="st1" d="M19.3,15.6c-0.6-0.3-1.2-0.3-1.8-0.7c-0.5-0.4-1.1-0.1-1.6-0.2c0,0.1,0,0.3,0,0.4c0.9,0.5,1.2,1.4,1.5,2.3
				c0,0.1,0.2,0.3,0.4,0.4c0,0.1,0,0.3,0.1,0.4c1,0.3,1.9-0.7,1.8-1.8c0,0.1,0.1,0.3,0.1,0.4C19.9,16.4,19.8,15.9,19.3,15.6z"/>
			<path class="st1" d="M21.2,48.3c-1.2-0.1-2.5,0-3.5,0.4c-1.1,0.4-2.2,1-3.5,0.9c-0.5,0-0.9-0.2-1.2-0.3c-0.8-0.1-1.8,0.3-2.2,0.7
				c0.3-0.3,1.2,0.1,1.5,0.2c0.4,0.2,0.4,0.3,0.9,0.4c0.7,0.1,1.5-0.1,2.2-0.4c1.6-0.6,3.3-0.9,5-1.2c1.2-0.2,2.5-0.2,3.5-0.1
				c1,0.1,2-0.2,3-0.4c0-0.1,0-0.2,0-0.2C24.9,48.5,22.9,48.6,21.2,48.3z"/>
			<path class="st1" d="M51.2,11c-0.4,0.6-0.6,1.2-0.4,1.9c0.2,0.4,0.8,0.5,1.2,0.2c0.1-0.1-0.1-0.4,0-0.5c0.4-0.4,0.5-0.8,0.4-1.3
				C52.2,10.9,51.4,10.8,51.2,11z"/>
			<path class="st1" d="M37.6,13.1c0.1-0.5,0-1-0.5-1.3c-0.6-0.3-1.2-0.3-1.8-0.7c-0.5-0.4-1.1-0.1-1.6-0.2c0,0.1,0,0.3,0,0.4
				c0.9,0.5,1.2,1.4,1.5,2.3c0,0.1,0.2,0.3,0.4,0.4c0,0.1,0,0.3,0.1,0.4c1,0.3,1.9-0.7,1.8-1.8C37.5,12.8,37.6,13,37.6,13.1z"/>
			<path class="st1" d="M49.3,9.4c-0.1,0-0.3,0.1-0.3,0.1c-0.1,0.4-0.1,0.9-0.4,1c-0.6,0.3-1.3,0.2-1.4-0.6c-1.2-0.3-2.3,0-3.5-0.1
				c0,0.3-0.1,0.7,0.1,1c0.2,0.3,0.4,0.6,0.7,0.8c0.4,0.2,0.9,0,1.2,0.3c0.3,0.2,0.7,0.6,1,0.8c0.5,0.3,1.5,0.6,2,0.2
				c0.7-0.5,0.8-1.5,1.1-2.3c0.2-0.3,0.1-0.7,0.1-1C49.7,9.4,49.5,9.4,49.3,9.4z"/>
			<path class="st1" d="M37.7,27.5c0.3,0.4,0.7-0.5,1-0.9C38,26.5,37.2,27.1,37.7,27.5z"/>
			<path class="st1" d="M42.4,20.6c-0.1-0.4,0.2-0.7,0.2-1.1c-0.1,0-0.3-0.1-0.3-0.2c-0.8-0.2-1.3-0.8-1.9-1.3
				c-0.1-0.1-0.4-0.1-0.4-0.1c-0.4,0.8-0.6,1.7-1.1,2.5c-0.3,0.6-0.5,1.2-0.9,1.9c0,0-0.1,0.1-0.2,0.2c-0.5,0.8-0.6,1.8-0.8,2.8
				c0.4,0.2,0.7,0.2,1.1,0c0.3-0.1,0.4-0.4,0.7-0.5c0.5-0.2,0.9-0.3,1.4-0.6c0.2,0,0.3,0,0.5-0.1c0.3-0.3,0.6-0.5,0.8-0.7
				c0.3-0.4,0.8-0.6,1.1-1c0.2-0.3,0.5-0.6,0.5-1.1C43,21,42.5,21,42.4,20.6z"/>
			<g>
				<path class="st1" d="M39.1,49.4c0.3,0.3,0.3,0.4,0.8,0.6c0.7,0.2,1.5,0.2,2.2,0.2c1.7-0.1,3.4-0.1,5.1,0.1
					c1.2,0.1,2.4,0.4,3.4,0.8c0.9,0.3,2,0.3,3,0.4c0-0.1,0-0.2,0-0.2c-1.8-0.4-3.8-0.7-5.4-1.5c-1.1-0.4-2.4-0.6-3.5-0.5
					c-1.2,0.1-2.4,0.4-3.6,0c-0.5-0.1-0.8-0.4-1.1-0.6c-0.8-0.4-1.9-0.2-2.3,0.1C38.1,48.6,38.9,49.2,39.1,49.4z"/>
				<path class="st1" d="M21.2,48.3c-1.2-0.1-2.5,0-3.5,0.4c-1.1,0.4-2.2,1-3.5,0.9c-0.5,0-0.9-0.2-1.2-0.3
					c-0.8-0.1-1.8,0.3-2.2,0.7c0.3-0.3,1.2,0.1,1.5,0.2c0.4,0.2,0.4,0.3,0.9,0.4c0.7,0.1,1.5-0.1,2.2-0.4c1.6-0.6,3.3-0.9,5-1.2
					c1.2-0.2,2.5-0.2,3.5-0.1c1,0.1,2-0.2,3-0.4c0-0.1,0-0.2,0-0.2C24.9,48.5,22.9,48.6,21.2,48.3z"/>
				<path class="st1" d="M30,16.9c-1.1-0.2-2.2-0.9-3.2-0.4c-0.1,0.1-0.2,0.4-0.3,0.4c-0.7,0.5-1.5,0.4-2.2,0.3
					c-0.2-0.1-0.3-0.4-0.5-0.5c-0.4-0.2-0.9-0.2-1,0.1c-0.3,0.8-0.2,1.8-0.1,2.6c0.1,0.3,0.4,0.4,0.6,0.7c0.1,0,0.2,0.2,0.4,0.1
					c0,0.2,0.2,0.3,0.3,0.4c0.3,0.2,0.8,0.3,1.2,0.6c1.2,0.7,2.3,0.7,3.6,0.6C29.4,20.2,30.2,18.7,30,16.9z"/>
				<path class="st1" d="M33,29.7c-0.1,0.2-0.1,0.6,0,0.8h0.3c0.1-0.2,0.1-0.6,0-0.8H33z"/>
				<path class="st1" d="M16.6,21.4c-0.1,0-0.3,0.1-0.3,0.1c-0.1,0.4-0.1,0.9-0.4,1c-0.6,0.3-1.3,0.2-1.4-0.6
					c-1.2-0.3-2.3,0-3.5-0.1c0,0.3-0.1,0.6,0.1,0.9c-0.1,0-0.3,0.1-0.4,0.2c-0.8,0.4-1.5,0.9-2.4,0.7C8,23.5,7.7,23.1,7.5,23
					c-0.6-0.4-1.3,0-1.6,0.5c0.2-0.4,0.8,0.3,1,0.6c0.3,0.3,0.3,0.5,0.6,0.7c0.5,0.2,1,0.1,1.5-0.1c1.1-0.5,2.3-0.6,3.5-0.7
					c0.2,0,0.4,0,0.7,0.1c0.3,0.2,0.6,0.5,0.9,0.7c0.5,0.3,1.5,0.6,2,0.2c0.1-0.1,0.3-0.2,0.4-0.4c0.2,0,0.5-0.1,0.7-0.1
					c0-0.2,0-0.3,0-0.3c-0.1,0-0.3,0-0.4-0.1c0.2-0.5,0.3-1,0.5-1.5c0.2-0.3,0.1-0.7,0.1-1C17,21.4,16.8,21.4,16.6,21.4z"/>
				<path class="st1" d="M19.3,15.6c-0.6-0.3-1.2-0.3-1.8-0.7c-0.5-0.4-1.1-0.1-1.6-0.2c0,0.1,0,0.3,0,0.4c0.9,0.5,1.2,1.4,1.5,2.3
					c0,0.1,0.2,0.3,0.4,0.4c0,0.1,0,0.3,0.1,0.4c1,0.3,1.9-0.7,1.8-1.8c0,0.1,0.1,0.3,0.1,0.4C19.9,16.4,19.8,15.9,19.3,15.6z"/>
				<path class="st1" d="M16.8,18.3c-0.5-0.2-0.9-0.3-1.4-0.2c0,0,0,0.1,0,0.2C15.9,18.2,16.3,18.6,16.8,18.3z"/>
				<path class="st1" d="M51.2,11c-0.4,0.6-0.6,1.2-0.4,1.9c0.2,0.4,0.8,0.5,1.2,0.2c0.1-0.1-0.1-0.4,0-0.5c0.4-0.4,0.5-0.8,0.4-1.3
					C52.2,10.9,51.4,10.8,51.2,11z"/>
				<path class="st1" d="M49.3,9.4c-0.1,0-0.3,0.1-0.3,0.1c-0.1,0.4-0.1,0.9-0.4,1c-0.6,0.3-1.3,0.2-1.4-0.6c-1.2-0.3-2.3,0-3.5-0.1
					c0,0.3-0.1,0.7,0.1,1c0.2,0.3,0.4,0.6,0.7,0.8c0.4,0.2,0.9,0,1.2,0.3c0.3,0.2,0.7,0.6,1,0.8c0.5,0.3,1.5,0.6,2,0.2
					c0.7-0.5,0.8-1.5,1.1-2.3c0.2-0.3,0.1-0.7,0.1-1C49.7,9.4,49.5,9.4,49.3,9.4z"/>
				<path class="st1" d="M37.6,13.1c0.1-0.5,0-1-0.5-1.3c-0.6-0.3-1.2-0.3-1.8-0.7c-0.5-0.4-1.1-0.1-1.6-0.2c0,0.1,0,0.3,0,0.4
					c0.9,0.5,1.2,1.4,1.5,2.3c0,0.1,0.2,0.3,0.4,0.4c0,0.1,0,0.3,0.1,0.4c1,0.3,1.9-0.7,1.8-1.8C37.5,12.8,37.6,13,37.6,13.1z"/>
				<path class="st1" d="M35,18.7c0-0.1-0.1-0.1-0.1-0.2c-0.2,0-0.5,0-0.5,0c-0.3,0.9-0.2,2-0.9,2.4c-0.4,0.3-1.2,0.3-1.5,0.9
					c0,0.2-0.1,0.6,0.1,0.7c0.4,0.1,1-0.1,1.2,0.2c0.5,0.5,0.6,1.5,0,1.9c-0.5,0.4-1.3-0.2-1.8,0.3c-0.5,0.3-0.6,1-0.7,1.6
					c-0.1,0.6-0.5,1.2-0.8,1.8c-0.3,0.7,0.2,1.4-0.3,2c-0.2,0.2-0.9,0-1,0.2c-0.3,0.4-0.1,0.9,0.5,1c-0.1,0.3,0,0.5,0.2,0.6
					c0.2,0.1,0.6,0.1,0.8,0c0.5-0.4,0.8-1,0.9-1.7c0-0.1,0.2-0.4,0.2-0.5c0.4-0.9,0.1-1.8,0.2-2.6c0.1-0.3,0.4-0.5,0.6-0.7
					c0.9-0.6,2.2-0.9,2.4-1.9c0.6-1.6-0.3-3.2,0.2-4.8C34.9,19.4,35.1,19.1,35,18.7z"/>
				<path class="st1" d="M37.7,27.5c0.3,0.4,0.7-0.5,1-0.9C38,26.5,37.2,27.1,37.7,27.5z"/>
				<path class="st1" d="M42.4,20.6c-0.1-0.4,0.2-0.7,0.2-1.1c-0.1,0-0.3-0.1-0.3-0.2c-0.8-0.2-1.3-0.8-1.9-1.3
					c-0.1-0.1-0.4-0.1-0.4-0.1c-0.4,0.8-0.6,1.7-1.1,2.5c-0.3,0.6-0.5,1.2-0.9,1.9c0,0-0.1,0.1-0.2,0.2c-0.5,0.8-0.6,1.8-0.8,2.8
					c0.4,0.2,0.7,0.2,1.1,0c0.3-0.1,0.4-0.4,0.7-0.5c0.5-0.2,0.9-0.3,1.4-0.6c0.2,0,0.3,0,0.5-0.1c0.3-0.3,0.6-0.5,0.8-0.7
					c0.3-0.4,0.8-0.6,1.1-1c0.2-0.3,0.5-0.6,0.5-1.1C43,21,42.5,21,42.4,20.6z"/>
				<path class="st2" d="M59.3,19c-0.1-0.2-0.1-0.5-0.2-0.7c-0.1-0.1-0.2-0.2-0.3-0.3c-0.3-1.4-1.5-2.2-2.2-3.4
					c-0.1-0.3-0.1-0.6-0.3-0.9c-1.6-1.8-2.9-3.4-4.7-4.9c-0.8-0.8-1.5-1.6-2.3-2.2c-0.7-0.4-1.3-0.8-1.9-1.2c-2.2-1.5-4.5-2.3-6.9-3
					C39,2,37.6,1.6,36,1.4c-2.6-0.4-5.2-0.5-7.8-0.3c-0.7,0-1.5,0.1-2.1,0.3c-0.7,0.2-1.4,0.4-2,0.5c-0.4,0.1-0.9,0.2-1.3,0.3
					c-0.7,0.2-1.3,0.7-2,0.8C20.2,3.1,19.5,3,19,3.3c-1.5,0.8-2.8,1.6-4.3,2.6c-0.2,0.2-0.4,0.4-0.6,0.5c-1.2,0.9-2.2,1.7-3.3,2.6
					c-0.2,0.3-0.6,0.4-0.6,0.8c0,0.5-0.9,0.9-1.3,1.4c-0.3,0.4-0.6,0.8-1,1.1c-0.7,0.5-1.1,1.6-1.6,2.3c-0.6,0.9-1,1.7-1.4,2.5
					c-0.3,0.7-0.9,1.4-1.2,2.1c-0.3,0.6-0.5,1.2-0.8,1.8c-0.2,0.3-0.3,0.8-0.4,1.1C2.2,23.4,2,24.7,1.9,26c-0.1,0.1-0.3,0.4-0.3,0.4
					c0.2,0.2,0.3,0.3,0.5,0.5C2.4,27.1,2.7,27,3,27c1.5,0.2,2.7,0.9,4.1,1.6c0.6,0.3,1.3,1,1.9,1.2c0.9,0.2,1.4,0.8,2,1.3
					c0.5,0.4,1.5,0.2,2.1-0.1c0.7-0.3,1.5-0.6,2.2-1.2c0.2-0.1,0.5-0.1,0.7-0.1c0.1-0.1,0.3-0.2,0.4-0.2c0.6-0.2,1.2,0,1.7-0.3
					c0.8-0.4,0.6-1.5,1.1-2.1c0.2-0.4,0.6-0.5,1-0.8c0.2-0.3,0.1-0.8,0.4-0.9c0.2-0.1,0.5,0.2,0.7,0.4c0.3,0.2,0.5,0.7,0.6,1.1
					c0.2-0.1,0.2,0.3,0.4,0.2c0,0.2-0.1,0.5,0,0.7c0.3,0.7,0.4,1.4,0.6,2c0.3,1.1,0.7,2,1.2,3c0.7,1.3,0.3,2.7,0.3,4.1
					c0,0.2-0.3,0.3-0.3,0.5c0,0.3,0.1,0.6,0,0.9c-0.8,1.3-1.7,4.5-2.6,5.8c-0.5,0.7-1.3,1.3-2.1,1.5c-1.2,0.4-2.3,0.9-3.3,1.4
					c-1.9,0.9-4.1,0.2-6.1,0.4c-0.1,0.1-0.3,0.2-0.4,0.3c-1.3,0.2-2.3-1.3-3.6-1.4c0.1,0.3-0.1,0.7,0.2,1c0.6,0.6,0.8,1.4,1.2,2.1
					c0.1,0,0.3,0.3,0.4,0.4l-0.5,0c0,0,0.8,0.9,2.3,2.2c0.1,0.2,0.3,0.3,0.4,0.4c1.1,1,2.5,2.1,4.1,3.2c-0.3,0.3-0.3,0.4,0.3,0.3
					c0,0,0.1,0,0.1,0c5.9,4,15,7.9,25.4,5c0,0,0.1,0.1,0.1,0.1c0,0,0,0,0-0.2c4.4-1.3,9-3.8,13.6-8c-0.1,0.3-0.3,0.7,0,0.9
					c0.1,0.1,1.1-1.6,1-1.3c0.1-0.1,0.3-0.7,0.5-1c0.6-0.6,1.2-1.2,1.9-1.9l-0.6,0c0.4-0.5,0.6-1.1,0.9-1.8c-0.2,0.4-0.5,0.8-1,0.9
					c0-0.2-0.2,0.2-0.4,0.9l-1.3,0c-0.2-0.2-0.4-0.5-0.6-0.9c-0.3-0.5-1-0.5-1.5-0.5c0-0.2-0.3-0.2-0.3-0.2c-1.6-0.2-3,0-4.6,0
					c-1.5,0.1-2.8,0.3-4.4,0c-1.1-0.2-2-0.8-3-1c-0.7-0.2-1.3-0.5-1.8-0.9c-0.4-0.3-1.1-0.3-1.2-0.9c-0.2,0.1-0.4-0.1-0.5-0.1
					c-2.1-2.9-1.8-11.5,0.6-14.3c0.6-0.7,1.3-1.3,2-1.9c0.3-0.3,0.7-0.4,1.1-0.8c0.1,0,0.4-0.1,0.4-0.1c0.7-1.1,1.8-0.8,2.7-1
					c0.4-0.2,0.7-0.4,0.9-0.8c0.4-0.6,0.3-1.5,0.6-2.1c0.3-0.6,0.7-1.3,0.7-2c0.6,0,1.3-0.1,1.7,0.3c0.6,0.5,1.3,0.4,2,0.3
					c0.1-0.1,0.3-0.2,0.3-0.2c0.7-0.2,1.8-0.1,1.9-1c0.9-0.1,1.8-0.4,2.4,0.1c0.2,0.1,0.5,0.3,0.8,0.4c0.4,0.4,1.2,0.3,1.5-0.1
					c0.5-0.8-0.2-1.6-1.1-2.2c-0.2-0.1,0.1-0.5,0.3-0.6c0.5-0.3,1.1,0.1,1.1,0.6c0.1,0.5,0.2,1,0.5,1.1c0.8,0.3,1.4,0.9,2.1,1.3
					c0.4,0.3,1,0.6,1.5,0.8c0.1,0.1,0.3,0.2,0.4,0.4C59.8,21.7,59.9,20.3,59.3,19z M17,22.5c-0.2,0.5-0.3,1-0.5,1.5
					c0.1,0,0.3,0,0.4,0.1c0,0,0,0.2,0,0.3c-0.2,0-0.5,0-0.7,0.1c-0.1,0.1-0.2,0.3-0.4,0.4c-0.5,0.4-1.5,0.1-2-0.2
					c-0.3-0.2-0.6-0.5-0.9-0.7c-0.2,0-0.4-0.1-0.7-0.1c-1.2,0.1-2.4,0.2-3.5,0.7c-0.5,0.2-1,0.3-1.5,0.1c-0.3-0.1-0.3-0.4-0.6-0.7
					c-0.2-0.2-0.8-0.9-1-0.6c0.3-0.5,1-0.9,1.6-0.5c0.2,0.1,0.5,0.5,0.8,0.6c0.9,0.3,1.7-0.3,2.4-0.7c0.1-0.1,0.3-0.1,0.4-0.2
					c-0.2-0.3-0.1-0.7-0.1-0.9c1.2,0.1,2.3-0.2,3.5,0.1c0.1,0.8,0.8,0.9,1.4,0.6c0.3-0.1,0.3-0.6,0.4-1c0,0,0.2-0.1,0.3-0.1
					c0.2,0,0.4,0,0.5,0.1C17.1,21.8,17.2,22.2,17,22.5z M19.8,16.9c0-0.1-0.1-0.3-0.1-0.4c0.1,1.1-0.8,2.1-1.8,1.8
					c-0.1-0.1-0.1-0.3-0.1-0.4c-0.2-0.1-0.4-0.3-0.4-0.4c-0.3-1-0.6-1.9-1.5-2.3c0-0.1,0-0.3,0-0.4c0.5,0.1,1.1-0.2,1.6,0.2
					c0.6,0.4,1.2,0.4,1.8,0.7C19.8,15.9,19.9,16.4,19.8,16.9z M40.1,48.8c0.3,0.1,0.7,0.5,1.1,0.6c1.3,0.3,2.4,0.1,3.6,0
					c1.1-0.1,2.3,0,3.5,0.5c1.6,0.7,3.5,1.1,5.4,1.5c0,0,0,0.1,0,0.2c-1-0.1-2.1-0.1-3-0.4c-1-0.3-2.3-0.7-3.4-0.8
					c-1.7-0.2-3.5-0.2-5.1-0.1c-0.7,0.1-1.5,0-2.2-0.2c-0.5-0.2-0.4-0.3-0.8-0.6c-0.2-0.2-1-0.8-1.4-0.6
					C38.2,48.5,39.3,48.4,40.1,48.8z M23.8,49c-1.1-0.1-2.4-0.1-3.5,0.1c-1.7,0.3-3.4,0.6-5,1.2c-0.7,0.2-1.5,0.4-2.2,0.4
					c-0.5,0-0.5-0.2-0.9-0.4c-0.3-0.1-1.2-0.5-1.5-0.2c0.4-0.4,1.4-0.8,2.2-0.7c0.4,0.1,0.8,0.3,1.2,0.3c1.3,0,2.4-0.5,3.5-0.9
					c1-0.4,2.3-0.6,3.5-0.4c1.7,0.3,3.7,0.1,5.6,0.1c0,0,0,0.1,0,0.2C25.8,48.8,24.8,49.1,23.8,49z M25.1,21.2
					c-0.4-0.3-0.9-0.4-1.2-0.6c-0.1-0.1-0.3-0.2-0.3-0.4c-0.2,0.1-0.3-0.1-0.4-0.1c-0.2-0.3-0.5-0.4-0.6-0.7
					c-0.1-0.9-0.2-1.9,0.1-2.6c0.1-0.3,0.6-0.3,1-0.1c0.2,0.1,0.3,0.4,0.5,0.5c0.8,0.1,1.6,0.2,2.2-0.3c0.1,0,0.2-0.3,0.3-0.4
					c1.1-0.5,2.1,0.2,3.2,0.4c0.2,1.8-0.6,3.3-1.3,4.9C27.4,21.9,26.3,21.9,25.1,21.2z M33.3,30.5H33c-0.1-0.2-0.1-0.6,0-0.8h0.3
					C33.4,29.9,33.4,30.3,33.3,30.5z M34.6,24.5c-0.3,1-1.6,1.3-2.4,1.9c-0.2,0.2-0.5,0.4-0.6,0.7c-0.1,0.9,0.2,1.8-0.2,2.6
					c0,0.1-0.2,0.4-0.2,0.5c-0.1,0.7-0.4,1.3-0.9,1.7c-0.2,0.1-0.6,0.1-0.8,0c-0.2-0.1-0.3-0.3-0.2-0.6c-0.6-0.1-0.8-0.6-0.5-1
					c0.1-0.2,0.8,0,1-0.2c0.5-0.6,0-1.3,0.3-2c0.3-0.6,0.7-1.2,0.8-1.8c0.1-0.6,0.2-1.3,0.7-1.6c0.5-0.5,1.3,0.1,1.8-0.3
					c0.6-0.4,0.5-1.4,0-1.9c-0.2-0.3-0.8-0.1-1.2-0.2C31.9,22.4,32,22,32,21.8c0.3-0.6,1.1-0.6,1.5-0.9c0.7-0.4,0.6-1.6,0.9-2.4
					c0,0,0.3,0,0.5,0c0,0.1,0.1,0.1,0.1,0.2c0.1,0.4-0.1,0.8-0.2,1.1C34.3,21.3,35.2,23,34.6,24.5z M35.8,14.5
					c-0.1-0.1-0.1-0.3-0.1-0.4c-0.2-0.1-0.4-0.3-0.4-0.4c-0.3-1-0.6-1.9-1.5-2.3c0-0.1,0-0.3,0-0.4c0.5,0.1,1.1-0.2,1.6,0.2
					c0.6,0.4,1.2,0.4,1.8,0.7c0.5,0.3,0.6,0.8,0.5,1.3c0-0.1-0.1-0.3-0.1-0.4C37.6,13.8,36.8,14.8,35.8,14.5z M37.7,27.5
					c-0.5-0.5,0.3-1.1,1-0.9C38.4,27.1,38,27.9,37.7,27.5z M42.6,22.5c-0.2,0.4-0.7,0.6-1.1,1c-0.2,0.3-0.5,0.5-0.8,0.7
					c-0.2,0-0.3,0-0.5,0.1c-0.5,0.3-0.9,0.4-1.4,0.6c-0.2,0.1-0.4,0.4-0.7,0.5c-0.4,0.2-0.7,0.2-1.1,0c0.2-1,0.3-2,0.8-2.8
					c0.1-0.1,0.2-0.2,0.2-0.2c0.3-0.7,0.6-1.3,0.9-1.9c0.4-0.8,0.6-1.6,1.1-2.5c0,0,0.2,0,0.4,0.1c0.5,0.6,1.1,1.1,1.9,1.3
					c0.1,0,0.3,0.1,0.3,0.2c0,0.3-0.2,0.7-0.2,1.1c0.1,0.4,0.6,0.4,0.7,0.8C43.2,21.8,42.9,22.2,42.6,22.5z M49.7,10.5
					c-0.3,0.9-0.4,1.9-1.1,2.3c-0.5,0.4-1.5,0.1-2-0.2c-0.3-0.2-0.7-0.6-1-0.8c-0.3-0.3-0.8-0.1-1.2-0.3c-0.3-0.2-0.5-0.5-0.7-0.8
					c-0.2-0.3-0.1-0.7-0.1-1c1.2,0.1,2.3-0.2,3.5,0.1c0.1,0.8,0.8,0.9,1.4,0.6c0.3-0.1,0.3-0.6,0.4-1c0,0,0.2-0.1,0.3-0.1
					c0.2,0,0.4,0,0.5,0.1C49.8,9.8,49.9,10.2,49.7,10.5z M51.9,13.1c-0.4,0.3-1,0.2-1.2-0.2c-0.2-0.7,0-1.3,0.4-1.9
					c0.2-0.3,1.1-0.2,1.2,0.3c0.1,0.5,0,0.9-0.4,1.3C51.9,12.7,52,13,51.9,13.1z"/>
			</g>
		</g>
		<path class="st3" d="M57.1,47.6c0.1-0.2,0.1-0.3,0.2-0.5C57.2,47.3,57.1,47.4,57.1,47.6z"/>
		<path class="st4" d="M57.8,45.8c-0.1,0.2-0.2,0.3-0.2,0.5"/>
		<path class="st4" d="M57.6,46.3c-0.1,0.3-0.2,0.6-0.3,0.8"/>
	</g>
</g>
</svg>
