<svg version="1" xmlns="http://www.w3.org/2000/svg" width="1429.333" height="1429.333" viewBox="0 0 1072.000000 1072.000000"><path d="M245.2 14.9c-14.1 19.4-24.1 34.2-29.6 43.8-16 27.8-26.3 72.7-29.7 129.3-1.1 18.5-1.1 20.2 1 32 5.2 29.9 11.5 54.9 29.8 118.5 12.1 42.2 18.1 65.5 21.3 82.9 1.7 9.6 2.5 11.5 8.1 20.8 32.2 53.6 89.7 106.3 164.5 151 29.1 17.4 47.7 27.1 76.1 39.9 42.1 18.8 81.6 44.1 118.3 75.8 54 46.6 109.6 114.8 144 176.9l5.8 10.5 2-3.9c5.5-11.3 6.7-15.7 6.6-24.9-.2-11.4-2.8-26.5-5.8-33-1.3-2.8-9.1-15.3-17.4-27.8-23.4-35.5-27.9-46.1-22.2-52.2 3.1-3.3 14.2-8.5 30-14 16.9-5.9 20.4-7.9 30.2-17.3 30.1-28.8 30-70.7-.4-95.9-7-5.8-21.2-12.7-31.8-15.5-12.3-3.2-29.3-3.1-51 .4-37.4 6.1-73.9 8.5-86.9 5.7-6.4-1.3-10.1-4.2-10.1-7.8 0-4.8 5.3-11.2 27.7-33.6 12.1-12.1 24.8-25.8 28.3-30.5 18.1-24.4 19-42.7 3.1-59-14.3-14.6-34.6-22.9-55.9-23-17.5 0-28.5 2.4-65.2 14.5-26.9 8.8-40.1 11.7-44.6 9.6-4.7-2.1-3-12.2 6-35 6.5-16.6 8-22.7 7.3-29.7-1.6-15.1-17.1-30.6-40.2-40-23.9-9.8-57-13.8-81.5-9.8-5.2.8-13.5 2.1-18.5 2.9-19.6 3.2-42.8 1.2-58.4-5-16.7-6.5-33.3-20.5-44.7-37.6C240.2 302.1 225 260.2 220 220c-6.6-53.4 4.7-113 29.3-153.4C259.9 49 262.8 43.2 264.6 35c1.3-5.5 1.4-7.9.5-12.1-1-4.7-8.4-21.9-9.4-21.9-.2 0-4.9 6.2-10.5 13.9z"/><path d="M242 466.4c0 8.8-2.7 22.9-7.1 36.5-6.2 19.3-7.4 27.4-6 41.6 1.3 13.2 5.5 32.1 8.6 39.1 5.2 11.7 15.8 25.8 26.2 34.6 11.8 10.1 26.7 15.8 49.8 19.4 21.9 3.3 28.5 6 31.5 12.7 3.3 7.4 4.3 23.8 3.1 48.4-1.8 36.9-1.3 49.1 3.5 72.1 5.1 25 14.6 42.5 27.4 51 14.1 9.5 29.5 9.9 43.2 1.1 6.3-4.1 19.3-17.9 29.8-31.7 4.6-6.2 8.7-11.2 9.1-11.2.4 0 2 5.3 3.7 11.7 2.8 10.5 4.5 20 10.7 59.8 7 44.7 22.3 65.2 54 72.6 11.4 2.6 17.9 2.2 26.1-1.5 8.9-4.1 20-16.1 32.8-35.6 11.6-17.6 20.6-27.9 27.1-31.3 2.6-1.3 5.9-2 9.5-2 10.1 0 19.9 5.9 46.4 27.7 24.1 19.8 34.2 27.1 44.4 32.3 8.2 4.2 10.3 4.8 16.7 5.1 7.6.4 13.5-.9 15.6-3.4 2.6-3.2-30.2-55.5-59-93.9-38.7-51.7-65.5-79.3-107.6-111-36.2-27.2-81.5-53.8-109.5-64.1-23.2-8.6-74.3-35.8-100.6-53.5-50.4-34.1-92.9-75-122.3-117.8-3.9-5.7-7.1-9.7-7.1-8.7zM594.5 1030.6c-121.9 1.9-206.5 11.1-192.9 21.1 3.1 2.2 22.3 8 32.4 9.7 20.1 3.4 57.3 6.4 108.5 8.8 36.2 1.7 176 1.7 212 0 78.5-3.7 121.5-8.6 131.1-14.9 5-3.2 2.7-5-13.6-10.1-27.4-8.7-99.9-13.7-210.5-14.5-26.4-.2-56.5-.3-67-.1z"/></svg>